<mxfile host="app.diagrams.net" agent="Mozilla/5.0 (Windows NT 10.0; WOW64) AppleWebKit/537.36 (KHTML, like Gecko) Chrome/101.0.4951.64 Safari/537.36" version="25.0.3">
  <diagram name="第 1 页" id="Xo8IP7oC6HBhN4AAaMqW">
    <mxGraphModel dx="1434" dy="755" grid="1" gridSize="10" guides="1" tooltips="1" connect="1" arrows="1" fold="1" page="1" pageScale="1" pageWidth="827" pageHeight="1169" math="0" shadow="0">
      <root>
        <mxCell id="0" />
        <mxCell id="1" parent="0" />
        <mxCell id="FPQ1UvC064AS9Qw-Qcx7-2" value="历史未检" style="ellipse;whiteSpace=wrap;html=1;" vertex="1" parent="1">
          <mxGeometry x="250" y="220" width="320" height="80" as="geometry" />
        </mxCell>
        <mxCell id="FPQ1UvC064AS9Qw-Qcx7-1" value="今日应检" style="ellipse;whiteSpace=wrap;html=1;" vertex="1" parent="1">
          <mxGeometry x="40" y="280" width="270" height="220" as="geometry" />
        </mxCell>
        <mxCell id="FPQ1UvC064AS9Qw-Qcx7-4" value="今日已检" style="ellipse;whiteSpace=wrap;html=1;" vertex="1" parent="1">
          <mxGeometry x="250" y="320" width="340" height="220" as="geometry" />
        </mxCell>
        <mxCell id="FPQ1UvC064AS9Qw-Qcx7-3" value="历史应检今日已检" style="ellipse;whiteSpace=wrap;html=1;" vertex="1" parent="1">
          <mxGeometry x="355" y="330" width="130" height="80" as="geometry" />
        </mxCell>
      </root>
    </mxGraphModel>
  </diagram>
</mxfile>
